<?xml version="1.0" standalone="no"?>
<!DOCTYPE svg PUBLIC "-//W3C//DTD SVG 20010904//EN"
 "http://www.w3.org/TR/2001/REC-SVG-20010904/DTD/svg10.dtd">
<svg version="1.0" xmlns="http://www.w3.org/2000/svg"
 width="2847.000000pt" height="1673.000000pt" viewBox="0 0 2847.000000 1673.000000"
 preserveAspectRatio="xMidYMid meet">

<g transform="translate(0.000000,1673.000000) scale(0.100000,-0.100000)"
fill="#000000" stroke="none">
<path d="M3555 8018 c-88 -5 -181 -16 -225 -27 -41 -10 -145 -26 -230 -35 -85
-9 -183 -21 -216 -26 -34 -6 -90 -10 -124 -10 -35 0 -77 -4 -94 -9 -38 -12
-182 -27 -391 -42 -187 -12 -369 -33 -475 -54 -63 -13 -79 -21 -102 -48 -58
-69 -80 -87 -110 -87 -40 0 -88 -48 -88 -89 0 -41 43 -75 85 -66 16 4 40 9 51
12 18 4 23 -1 28 -30 9 -48 29 -68 111 -112 99 -53 129 -77 196 -162 113 -142
143 -237 179 -568 7 -60 25 -192 41 -292 16 -101 36 -242 45 -315 48 -408 159
-676 364 -878 93 -92 159 -150 170 -150 4 0 13 -7 20 -15 44 -53 318 -167 565
-235 261 -72 334 -108 256 -125 -31 -7 -58 -30 -44 -38 31 -19 1164 -39 1182
-21 10 9 -34 44 -55 44 -37 0 -38 19 -2 34 18 8 76 24 128 37 334 78 479 137
665 268 170 120 376 363 522 616 115 200 155 286 230 495 180 503 214 667 163
798 -25 66 -26 132 0 181 61 122 215 158 615 148 333 -10 438 -36 480 -122 25
-51 22 -105 -10 -196 -49 -141 -34 -241 99 -659 25 -80 58 -185 72 -235 31
-106 38 -122 117 -285 175 -358 390 -636 620 -800 115 -83 314 -165 511 -211
231 -54 280 -82 181 -105 -27 -6 -63 -17 -78 -23 -16 -6 -43 -11 -60 -12 -31
-1 -31 -1 8 -10 21 -5 45 -7 52 -5 7 3 15 1 18 -4 4 -6 101 -8 258 -4 343 8
651 7 903 -1 148 -5 214 -3 218 4 4 6 16 11 27 11 10 0 19 5 19 10 0 6 -12 10
-26 10 -18 0 -25 4 -21 14 4 10 -13 15 -75 21 -158 13 -152 28 38 80 435 120
604 203 790 389 50 50 114 126 142 168 65 96 147 263 200 404 61 161 67 185
101 349 17 83 41 203 55 268 14 66 36 212 51 325 41 337 70 446 142 540 33 43
132 116 207 153 77 37 94 54 102 98 4 20 13 48 20 63 18 35 18 93 -1 126 -8
15 -19 46 -25 69 -6 24 -19 47 -29 52 -42 23 -487 101 -796 140 -44 6 -132 17
-195 25 -117 16 -470 52 -770 80 -91 9 -267 20 -392 25 -244 11 -271 8 -312
-38 -23 -25 -80 -26 -71 -1 4 8 7 20 8 25 3 14 -373 11 -503 -4 -58 -6 -125
-14 -150 -17 -98 -11 -340 -56 -427 -79 -103 -27 -167 -53 -283 -115 -19 -11
-70 -23 -112 -29 -86 -10 -188 -59 -283 -133 -45 -36 -54 -39 -90 -33 -23 3
-72 -1 -110 -8 -48 -10 -90 -12 -135 -7 -36 5 -328 8 -650 8 -389 0 -602 4
-635 11 -107 24 -115 24 -133 8 -17 -15 -18 -14 -17 9 0 23 -14 33 -125 89
-147 75 -342 153 -457 184 -87 23 -163 21 -163 -5 0 -8 -5 -14 -11 -14 -6 0
-8 9 -4 20 4 11 2 20 -4 20 -6 0 -11 -7 -11 -15 0 -8 -7 -15 -15 -15 -11 0
-14 7 -10 23 8 31 -28 50 -150 75 -389 82 -1025 118 -1560 90z m960 -148 c177
-14 388 -38 455 -51 261 -51 441 -100 606 -165 75 -30 221 -104 269 -137 55
-38 157 -141 195 -197 91 -134 125 -235 142 -420 10 -117 9 -137 -15 -306 -38
-260 -84 -421 -185 -653 -85 -194 -254 -469 -381 -620 -172 -202 -321 -313
-516 -384 -38 -14 -101 -40 -138 -57 -74 -35 -106 -40 -387 -59 -655 -46
-1203 48 -1564 267 -37 23 -69 42 -70 42 -5 0 -105 90 -156 140 -99 98 -174
204 -212 303 -34 87 -100 271 -105 292 -2 11 -8 29 -13 40 -48 118 -78 254
-91 415 -12 135 -6 359 9 386 6 11 30 -8 98 -82 132 -142 145 -157 194 -219
25 -32 54 -67 65 -79 11 -11 42 -47 68 -78 53 -64 87 -75 108 -36 15 29 5 134
-15 157 -9 10 -16 20 -16 24 0 3 -53 59 -118 124 -64 65 -143 146 -174 181
-32 34 -59 62 -62 62 -2 0 -23 18 -45 40 -41 40 -68 49 -88 29 -34 -34 -23
182 17 336 61 230 210 411 426 518 211 103 470 159 864 187 269 19 607 19 835
0z m5505 -60 c576 -43 989 -148 1158 -296 29 -25 59 -59 67 -75 8 -15 39 -53
68 -82 98 -101 143 -223 166 -456 27 -264 -2 -639 -69 -891 -51 -190 -134
-419 -196 -542 -38 -76 -132 -209 -187 -266 -51 -53 -252 -219 -323 -267 -24
-16 -44 -23 -59 -19 -12 3 -49 -2 -81 -11 -200 -54 -250 -66 -354 -80 -225
-31 -334 -37 -590 -31 -140 3 -284 10 -320 15 -36 6 -87 13 -115 17 -263 34
-570 144 -720 257 -132 99 -310 316 -420 512 -180 320 -269 572 -316 895 -27
183 -23 399 10 525 66 249 222 440 458 559 219 110 460 174 833 222 258 33
653 38 990 14z"/>
<path d="M11165 7326 c-27 -13 -67 -40 -87 -60 -20 -20 -39 -36 -41 -36 -7 0
-140 -135 -237 -240 -47 -50 -112 -120 -145 -154 -96 -101 -189 -206 -201
-227 -5 -11 -14 -16 -18 -12 -4 4 -7 3 -5 -2 3 -15 -12 -45 -24 -45 -10 0 -22
-9 -65 -52 -108 -107 -122 -133 -122 -222 0 -64 9 -79 43 -71 42 11 206 193
322 360 48 68 125 159 213 253 23 25 42 47 42 50 0 3 19 24 43 47 124 124 304
320 334 365 49 73 35 86 -52 46z"/>
<path d="M9610 7935 c-11 -13 -10 -14 4 -9 9 3 16 10 16 15 0 13 -6 11 -20 -6z"/>
<path d="M10473 4575 c0 -8 4 -15 9 -15 4 0 8 4 8 9 0 6 -4 12 -8 15 -5 3 -9
-1 -9 -9z"/>
<path d="M19917 4358 c-15 -18 -23 -34 -17 -36 5 -2 10 -13 10 -24 0 -26 65
-90 126 -123 27 -15 87 -51 134 -81 47 -30 105 -65 130 -79 25 -14 74 -44 110
-66 36 -23 81 -49 101 -60 21 -10 43 -24 51 -31 15 -14 20 -16 188 -106 58
-30 107 -58 110 -62 7 -11 64 -44 165 -96 50 -25 97 -51 105 -57 30 -24 144
-72 250 -105 169 -53 461 -92 815 -107 77 -4 160 -8 185 -11 61 -5 1125 -5
1142 0 7 3 125 7 261 10 137 3 265 8 285 11 20 2 84 10 142 16 58 6 110 14
115 18 6 3 19 6 30 7 66 2 73 5 78 25 5 19 11 21 41 16 29 -5 38 -2 47 14 7
14 16 18 30 14 23 -8 34 14 25 49 -4 18 -11 23 -25 19 -13 -3 -20 2 -25 21 -6
25 -26 37 -26 16 0 -5 -4 -10 -10 -10 -5 0 -10 7 -10 16 0 10 -6 14 -15 11 -8
-4 -17 -2 -20 3 -4 6 1 10 9 10 10 0 16 9 16 23 0 18 -2 19 -10 7 -9 -13 -11
-13 -20 0 -8 12 -10 12 -10 1 0 -8 -7 -11 -20 -8 -11 3 -20 1 -20 -4 0 -5 -5
-9 -11 -9 -6 0 -8 9 -4 20 5 14 2 20 -9 20 -9 0 -16 4 -16 9 0 15 41 61 55 61
7 0 16 7 19 15 7 19 -20 15 -159 -20 -270 -69 -563 -103 -1001 -114 -474 -12
-851 8 -1189 61 -232 36 -306 45 -312 35 -3 -5 -9 -3 -14 4 -6 11 -11 10 -26
-4 -15 -13 -27 -15 -54 -8 -18 5 -72 14 -119 21 -185 27 -407 88 -445 122 -5
4 -16 8 -24 8 -8 0 -22 6 -30 13 -9 7 -50 28 -91 47 -41 19 -77 38 -80 41 -3
3 -32 19 -65 35 -55 28 -105 55 -250 134 -137 74 -205 111 -255 137 -30 16
-106 57 -167 91 -68 38 -130 65 -155 68 -39 5 -45 2 -71 -28z"/>
<path d="M18890 3937 c-30 -11 -68 -35 -85 -52 -16 -17 -39 -34 -50 -39 -24
-9 -137 -23 -248 -32 -45 -3 -84 -7 -87 -9 -5 -3 -904 -9 -3070 -20 -536 -3
-1396 -7 -1910 -10 -514 -2 -1466 -7 -2115 -10 -649 -3 -1301 -9 -1450 -13
-148 -4 -312 -6 -362 -5 -51 1 -93 -2 -93 -7 0 -12 83 -19 220 -18 121 0 346
-25 393 -43 21 -9 31 -8 43 1 12 11 414 14 2077 16 2154 2 4443 10 5798 20
l796 6 6 -21 c3 -14 -1 -25 -14 -31 -18 -10 -135 -29 -214 -35 -91 -6 -600
-15 -1210 -20 -357 -3 -848 -8 -1090 -10 -242 -2 -1203 -7 -2135 -10 -932 -3
-2211 -8 -2843 -10 -851 -4 -1153 -2 -1169 6 -16 8 -34 9 -72 0 -187 -41 -337
-43 -2196 -37 -976 4 -1795 8 -1820 10 -78 6 -143 18 -178 33 -27 11 -41 12
-69 2 -27 -8 -257 -10 -917 -5 -484 4 -1151 8 -1481 11 -330 2 -1138 7 -1795
10 -657 3 -1275 8 -1372 10 l-178 4 0 -193 0 -193 438 -6 c240 -4 743 -9 1117
-12 374 -3 777 -7 895 -10 210 -4 978 -9 3350 -20 1291 -7 5858 -7 5868 -1 4
2 680 6 1502 10 822 4 1619 9 1770 11 151 3 568 7 925 10 1496 12 2420 27
2640 42 143 9 158 11 190 22 17 6 38 14 48 17 9 4 17 12 17 19 0 7 7 15 15 19
29 11 -60 114 -113 130 -13 4 -36 20 -52 36 l-29 28 25 17 c14 9 35 18 46 20
30 6 106 45 125 63 9 9 25 18 37 19 40 6 81 23 110 46 26 21 28 29 36 122 11
148 13 145 -70 112z"/>
<path d="M0 3769 c0 -24 5 -39 13 -40 115 -6 2079 -19 3977 -25 1042 -4 1772
-10 1783 -16 10 -5 24 -5 35 1 42 22 255 32 754 35 289 2 530 6 535 9 4 3 26
2 48 -2 48 -8 77 -3 72 12 -3 9 -67 12 -228 14 -123 1 -485 4 -804 8 -1273 13
-2725 23 -4465 30 -729 3 -1414 8 -1522 10 l-198 4 0 -40z"/>
<path d="M7250 3745 c-11 -13 -7 -15 24 -15 37 0 48 13 20 24 -23 9 -30 8 -44
-9z"/>
<path d="M7341 3741 c-10 -7 -10 -10 -1 -16 7 -4 16 -2 20 5 6 10 8 10 12 -1
5 -14 38 -5 38 11 0 12 -50 13 -69 1z"/>
<path d="M7425 3740 c3 -5 23 -10 43 -10 28 0 33 3 22 10 -20 13 -73 13 -65 0z"/>
<path d="M7860 3740 c0 -5 5 -10 10 -10 6 0 10 5 10 10 0 6 -4 10 -10 10 -5 0
-10 -4 -10 -10z"/>
<path d="M8135 3740 c-3 -5 1 -10 9 -10 9 0 16 5 16 10 0 6 -4 10 -9 10 -6 0
-13 -4 -16 -10z"/>
<path d="M8450 3740 c0 -5 4 -10 9 -10 6 0 13 5 16 10 3 6 -1 10 -9 10 -9 0
-16 -4 -16 -10z"/>
<path d="M9135 3740 c-3 -5 1 -10 9 -10 9 0 16 5 16 10 0 6 -4 10 -9 10 -6 0
-13 -4 -16 -10z"/>
<path d="M9194 3739 c-4 -8 3 -9 25 -4 20 4 37 2 46 -5 12 -10 15 -9 15 4 0
12 -10 16 -39 16 -22 0 -43 -5 -47 -11z"/>
<path d="M9310 3742 c0 -16 13 -22 27 -11 7 6 13 8 13 3 0 -5 14 -9 30 -9 17
0 29 5 27 10 -4 12 -97 19 -97 7z"/>
<path d="M7968 3733 c7 -3 16 -2 19 1 4 3 -2 6 -13 5 -11 0 -14 -3 -6 -6z"/>
<path d="M8018 3733 c7 -3 16 -2 19 1 4 3 -2 6 -13 5 -11 0 -14 -3 -6 -6z"/>
<path d="M8058 3733 c7 -3 16 -2 19 1 4 3 -2 6 -13 5 -11 0 -14 -3 -6 -6z"/>
<path d="M8538 3733 c7 -3 16 -2 19 1 4 3 -2 6 -13 5 -11 0 -14 -3 -6 -6z"/>
<path d="M8878 3733 c6 -2 18 -2 25 0 6 3 1 5 -13 5 -14 0 -19 -2 -12 -5z"/>
<path d="M24480 3589 c0 -5 5 -7 10 -4 6 3 10 8 10 11 0 2 -4 4 -10 4 -5 0
-10 -5 -10 -11z"/>
<path d="M28409 1276 c-8 -8 -210 -18 -394 -20 -104 -2 -192 -4 -195 -5 -14
-8 -181 -8 -186 0 -3 5 -13 5 -23 -1 -10 -5 -21 -7 -23 -4 -10 9 -48 13 -48 4
0 -5 -6 -7 -14 -4 -7 3 -16 -2 -20 -12 -4 -11 -10 -13 -19 -7 -14 11 -248 9
-289 -2 -15 -4 -33 -3 -40 1 -17 10 -48 13 -53 4 -3 -4 -68 -6 -147 -4 -92 2
-146 -1 -155 -8 -9 -7 -17 -7 -28 2 -10 8 -19 9 -27 3 -7 -5 -42 -11 -78 -13
-95 -4 -135 -7 -135 -10 0 -1 -15 -3 -32 -4 -18 -1 -33 2 -33 7 0 5 -6 4 -14
-2 -11 -9 -15 -9 -20 1 -5 11 -7 11 -12 0 -5 -10 -9 -10 -21 -1 -9 8 -17 9
-21 3 -8 -11 -63 -13 -56 -2 6 9 -77 -3 -99 -14 -12 -6 -19 -5 -23 6 -5 12 -8
13 -19 3 -9 -9 -67 -12 -231 -11 -131 1 -224 -3 -231 -9 -9 -6 -13 -6 -13 2 0
7 -9 9 -25 5 -15 -4 -25 -2 -25 5 0 9 -27 9 -50 1 -3 -1 -13 -1 -23 0 -10 1
-25 -4 -33 -11 -12 -10 -17 -10 -23 -1 -6 10 -17 9 -48 -2 -23 -8 -44 -12 -46
-9 -10 9 -77 12 -77 2 0 -5 -7 -9 -15 -9 -8 0 -15 5 -15 10 0 12 -99 9 -107
-3 -2 -4 -11 -2 -20 4 -11 10 -16 10 -22 1 -4 -6 -17 -10 -30 -7 -12 2 -33 0
-46 -5 -14 -5 -38 -5 -61 2 -25 6 -39 7 -42 0 -2 -6 -16 -7 -35 -3 -39 9 -67
3 -67 -12 0 -9 -2 -9 -8 0 -9 14 -58 16 -237 8 -71 -3 -131 -9 -133 -14 -4
-12 -42 -1 -42 11 0 7 -4 7 -12 0 -7 -5 -39 -8 -70 -6 -46 3 -59 1 -67 -13
-10 -17 -10 -17 -11 0 0 17 -2 17 -22 3 -25 -18 -42 -21 -33 -7 7 12 -183 14
-478 7 -70 -1 -130 1 -133 6 -3 4 -12 1 -21 -7 -10 -11 -19 -13 -27 -6 -9 7
-16 7 -24 -1 -8 -8 -15 -8 -26 1 -12 10 -16 9 -25 -6 -6 -10 -11 -13 -11 -7 0
12 -54 14 -65 2 -4 -4 -18 -2 -32 3 -15 5 -31 6 -41 0 -9 -5 -26 -5 -40 0 -14
5 -30 5 -41 0 -9 -5 -23 -6 -30 -2 -15 10 -61 2 -61 -10 0 -5 -10 -7 -22 -4
-45 11 -163 12 -183 2 -12 -6 -20 -6 -22 0 -4 10 -86 9 -102 -2 -5 -3 -12 -1
-15 4 -3 4 -24 5 -48 0 -24 -4 -53 -5 -66 -2 -12 3 -29 0 -36 -7 -11 -8 -20
-8 -35 -1 -27 15 -71 14 -71 -1 0 -8 -3 -9 -10 -2 -6 6 -24 8 -41 6 -21 -3
-27 -7 -18 -13 19 -11 -104 -1 -137 12 -20 7 -29 7 -35 -2 -6 -10 -11 -10 -22
-1 -12 10 -16 9 -21 -5 -4 -10 -10 -13 -14 -8 -4 6 -20 11 -37 12 -92 6 -97 5
-305 -11 -84 -6 -129 -7 -203 -3 -37 2 -70 1 -72 -3 -7 -11 -84 -10 -91 1 -4
7 -10 7 -18 0 -9 -8 -561 -25 -744 -23 -18 0 -30 -4 -27 -9 4 -5 0 -9 -9 -9
-8 0 -16 5 -18 10 -2 7 -14 7 -36 1 -17 -5 -32 -6 -32 -2 0 5 -26 6 -57 4 -84
-5 -107 -8 -123 -18 -9 -5 -15 -4 -18 3 -5 15 -32 16 -32 1 0 -5 -4 -8 -8 -5
-5 3 -84 6 -175 8 -92 2 -167 6 -167 9 0 3 -13 6 -30 6 -16 0 -27 -4 -24 -8 7
-12 -46 -15 -100 -6 -35 6 -51 5 -56 -3 -4 -7 -10 -8 -13 -3 -3 5 -45 7 -94 5
-48 -1 -130 -5 -181 -7 -52 -2 -96 -6 -99 -9 -4 -3 -12 -1 -20 5 -10 9 -13 7
-13 -6 0 -13 -3 -15 -12 -8 -17 14 -212 7 -216 -6 -2 -6 -9 -8 -15 -4 -6 3
-39 8 -74 9 -35 2 -73 6 -83 9 -14 5 -20 2 -20 -9 0 -20 -29 -21 -36 -1 -8 19
-28 19 -48 -1 -9 -8 -21 -12 -28 -8 -10 7 -63 9 -70 4 -4 -2 -72 -2 -235 0
-78 1 -145 0 -150 -3 -11 -7 -133 -8 -227 -2 -38 2 -73 2 -79 -2 -5 -3 -37 -4
-71 -3 -127 6 -233 6 -306 0 -41 -4 -86 -3 -99 2 -15 6 -29 4 -39 -4 -12 -10
-16 -10 -19 -1 -4 10 -10 10 -25 2 -11 -6 -26 -8 -34 -5 -8 3 -33 2 -57 -2
-23 -4 -59 -5 -79 -2 -20 4 -69 3 -109 -2 -45 -5 -76 -5 -82 1 -6 6 -16 6 -28
-2 -13 -8 -24 -8 -42 0 -17 8 -28 8 -35 1 -7 -7 -17 -6 -31 2 -12 6 -26 8 -33
4 -16 -10 -108 -11 -114 -2 -3 5 -10 5 -16 2 -20 -12 -118 -13 -118 -1 0 8 -3
8 -11 0 -6 -6 -18 -9 -25 -6 -8 3 -14 1 -14 -3 0 -5 -46 -9 -103 -8 -56 0
-116 -3 -133 -7 -17 -3 -38 -2 -47 2 -9 5 -26 5 -41 -1 -18 -7 -26 -6 -26 1 0
8 -5 7 -15 -1 -8 -7 -15 -8 -15 -3 0 5 -79 9 -190 9 -105 0 -190 -4 -190 -8 0
-5 -10 -4 -21 3 -14 7 -44 9 -85 4 -36 -4 -108 -8 -162 -11 -53 -2 -110 -6
-125 -10 -16 -3 -34 -1 -42 6 -12 10 -15 9 -15 -4 0 -9 -4 -16 -10 -16 -5 0
-10 5 -10 11 0 8 -25 9 -81 5 -59 -4 -78 -3 -73 6 5 8 0 9 -17 3 -13 -4 -95
-8 -181 -8 -87 0 -158 -3 -158 -6 0 -3 -53 -6 -117 -5 -65 1 -123 -3 -130 -8
-7 -5 -14 -5 -18 2 -4 6 -40 9 -89 9 -46 -1 -88 1 -95 5 -6 4 -11 2 -11 -5 0
-9 -3 -9 -14 0 -9 7 -43 12 -83 11 -37 -1 -72 -1 -78 0 -5 1 -23 1 -40 1 -23
-2 -27 0 -15 8 13 9 13 11 -1 11 -9 0 -19 -3 -23 -7 -4 -4 -60 -9 -124 -10
-64 -1 -160 -5 -212 -7 -89 -5 -633 -9 -655 -6 -5 1 -71 1 -145 -1 -74 -1
-201 -2 -282 -3 -82 0 -148 -4 -148 -9 0 -4 -10 -2 -21 5 -14 8 -23 9 -25 3
-5 -12 -254 -12 -273 -1 -7 4 -18 2 -26 -4 -8 -7 -24 -10 -35 -7 -11 3 -36 1
-57 -3 -20 -5 -42 -6 -47 -2 -10 6 -332 14 -456 12 -25 -1 -56 -2 -70 -2 -14
0 -46 2 -72 6 -28 4 -48 2 -48 -3 0 -11 -345 -7 -371 4 -10 3 -20 2 -24 -4 -4
-8 -12 -8 -26 0 -11 5 -29 7 -40 4 -18 -6 -509 -17 -659 -14 -103 1 -269 -1
-350 -4 -41 -2 -79 -1 -84 1 -4 3 -56 3 -115 2 -143 -4 -206 -3 -268 3 -30 3
-53 1 -53 -5 0 -5 -4 -7 -9 -4 -7 5 -63 6 -236 4 -22 0 -108 1 -190 3 -83 2
-155 0 -160 -3 -6 -3 -30 -4 -55 -2 -48 5 -523 6 -825 3 -113 -1 -183 -6 -187
-13 -5 -7 -14 -6 -30 2 -17 9 -127 12 -446 9 -233 -2 -425 0 -428 4 -2 4 -19
4 -36 0 -33 -7 -217 -6 -293 3 -22 2 -44 0 -50 -4 -9 -7 -70 -7 -85 0 -3 1
-13 2 -22 1 -10 -1 -27 3 -39 10 -19 10 -21 9 -15 -6 5 -14 3 -15 -6 -7 -8 6
-39 8 -78 5 -71 -6 -96 -6 -150 -3 -33 2 -236 2 -450 -1 -135 -1 -146 -1 -235
0 -44 1 -203 0 -352 -1 -171 -2 -273 0 -273 6 0 6 -5 5 -11 -1 -11 -11 -65
-10 -229 2 -36 3 -72 4 -80 4 -83 -7 -642 6 -687 16 -21 5 -33 4 -33 -3 0 -6
-12 -7 -32 -3 -18 4 -124 6 -236 6 -114 -1 -198 2 -190 6 9 6 9 9 1 9 -6 0
-14 -4 -18 -9 -3 -6 -85 -8 -198 -5 -436 10 -493 11 -515 3 -12 -5 -22 -5 -22
-1 0 9 -475 14 -1280 15 -427 0 -597 3 -603 11 -5 7 -10 7 -13 1 -4 -11 -231
-11 -641 0 l-253 7 0 -496 0 -496 14235 0 14235 0 0 640 -1 640 -28 0 c-15 0
-30 -2 -32 -4z"/>
<path d="M22490 1100 c0 -5 5 -10 10 -10 6 0 10 5 10 10 0 6 -4 10 -10 10 -5
0 -10 -4 -10 -10z"/>
</g>
</svg>
